Coordinates
version=1
nRows=11
nColumns=46
inDegrees=yes

Units are S.I. units (second, meters, Newtons, ...)
Angles are in degrees.

endheader
time	pelvis_tilt	pelvis_list	pelvis_rotation	pelvis_tx	pelvis_ty	pelvis_tz	bb_angle	bb_tx	bb_ty	bb_tz	hip_flexion_r	hip_adduction_r	hip_rotation_r	knee_angle_r	knee_angle_r_beta	ankle_angle_r	subtalar_angle_r	mtp_angle_r	crank_angle_r	hip_flexion_l	hip_adduction_l	hip_rotation_l	knee_angle_l	knee_angle_l_beta	ankle_angle_l	subtalar_angle_l	mtp_angle_l	crank_angle_l	lumbar_extension	lumbar_bending	lumbar_rotation	arm_flex_r	arm_add_r	arm_rot_r	elbow_flex_r	pro_sup_r	wrist_flex_r	wrist_dev_r	arm_flex_l	arm_add_l	arm_rot_l	elbow_flex_l	pro_sup_l	wrist_flex_l	wrist_dev_l
      0.00000000	    -18.24787633	     -3.78522822	     -3.65337909	      0.09112594	      1.13461160	     -0.24083723	      0.00000000	      0.50000000	      0.00000000	      0.25000000	     93.29773006	     -6.79352376	     -4.59068331	     98.00667781	      1.71053922	     22.96262131	      4.02870904	      0.00000000	      0.00000000	     51.07573432	    -16.99738598	    -11.00305048	     58.24486113	      1.01656460	     11.60716050	     11.04812049	      0.00000000	      0.00000000	    -47.61769154	      2.64468444	      8.50428675	     89.62909627	     -9.41771011	     30.29636479	     33.96504644	     23.68484898	      0.00000000	      0.00000000	     89.56704182	      0.22174171	     30.01605979	     24.36193777	     22.60326698	      0.00000000	      0.00000000
      0.00500000	    -18.22773476	     -3.77292902	     -3.65418159	      0.09112296	      1.13462698	     -0.24087608	      0.00000000	      0.50000000	      0.00000000	      0.25000000	     93.28624560	     -6.80567593	     -4.57749287	     98.01348924	      1.71065810	     22.95301215	      4.07901106	      0.00000000	      0.00000000	     51.04999240	    -16.97697440	    -10.99835128	     58.24383853	      1.01654675	     11.65436614	     11.04331394	      0.00000000	      0.00000000	    -47.64344054	      2.64099531	      8.50052428	     89.63050376	     -9.23955222	     29.63871738	     33.68992026	     24.80308419	      0.00000000	      0.00000000	     89.56611518	      0.43150622	     29.00323549	     24.17065856	     23.66871839	      0.00000000	      0.00000000
      0.01000000	    -18.26144790	     -3.77251416	     -3.67067981	      0.09119349	      1.13463031	     -0.24084828	      0.00000000	      0.50000000	      0.00000000	      0.25000000	     93.30874959	     -6.79175954	     -4.58724141	     98.00673753	      1.71054026	     22.95329087	      4.05794953	      0.00000000	      0.00000000	     51.06447716	    -16.98829383	    -11.01219004	     58.21987187	      1.01612845	     11.64922685	     11.04150876	      0.00000000	      0.00000000	    -47.62954757	      2.56905636	      8.47654194	     89.62492750	     -9.15978604	     29.14791325	     33.50362106	     25.77318758	      0.00000000	      0.00000000	     89.56724632	      0.63840005	     28.08840832	     24.06929860	     24.57469559	      0.00000000	      0.00000000
      0.01500000	    -18.48602532	     -3.97895509	     -3.80096130	      0.09086457	      1.13399250	     -0.24010927	      0.00000000	      0.50000000	      0.00000000	      0.25000000	     93.53945603	     -6.53173109	     -4.79652668	     97.94968143	      1.70954444	     22.79065933	      3.93129633	      0.00000000	      0.00000000	     51.37020917	    -17.13716230	    -10.68634386	     58.23099372	      1.01632257	     11.70570446	     11.25670612	      0.00000000	      0.00000000	    -47.43712834	      2.49725614	      8.59523009	     89.61960988	     -9.13985240	     28.83628224	     33.45390250	     26.70828437	      0.00000000	      0.00000000	     89.56958624	      0.91567916	     27.31613860	     24.03471543	     25.45377966	      0.00000000	      0.00000000
      0.02000000	    -18.41812039	     -3.91220841	     -3.72917476	      0.09085697	      1.13416409	     -0.24055624	      0.00000000	      0.50000000	      0.00000000	      0.25000000	     93.49695575	     -6.62002654	     -4.68018756	     97.99695533	      1.71036953	     22.89453858	      4.03639335	      0.00000000	      0.00000000	     51.34942622	    -17.18814936	    -10.85286592	     58.36938926	      1.01873802	     11.76236825	     11.40709806	      0.00000000	      0.00000000	    -47.44798693	      2.49660756	      8.57945747	     89.61185703	     -9.21494350	     28.91545550	     33.35430370	     26.65760603	      0.00000000	      0.00000000	     89.57361070	      0.92680060	     27.32561425	     23.81409112	     25.36868074	      0.00000000	      0.00000000
      0.02500000	    -18.47820871	     -3.88241522	     -3.75931877	      0.09085203	      1.13410554	     -0.24047352	      0.00000000	      0.50000000	      0.00000000	      0.25000000	     93.57132082	     -6.56232892	     -4.64448027	     98.00032582	      1.71042835	     22.84391020	      3.82716086	      0.00000000	      0.00000000	     51.40037405	    -17.19313453	    -10.87158968	     58.35685052	      1.01851918	     11.75003461	     11.18822949	      0.00000000	      0.00000000	    -47.36333324	      2.48208786	      8.54551704	     89.61724684	     -9.13165315	     29.24729009	     32.99996254	     27.23007030	      0.00000000	      0.00000000	     89.57193658	      0.88487477	     27.14830227	     23.73493752	     25.88404591	      0.00000000	      0.00000000
      0.03000000	    -18.31367340	     -3.87990442	     -3.88257261	      0.09100753	      1.13446133	     -0.24025130	      0.00000000	      0.50000000	      0.00000000	      0.25000000	     93.36492730	     -6.42048609	     -4.62289987	     97.98850689	      1.71022207	     23.05233267	      4.15742278	      0.00000000	      0.00000000	     51.13487229	    -17.35859724	    -11.06961990	     58.33565107	      1.01814918	     11.99560522	     11.67928007	      0.00000000	      0.00000000	    -47.66331762	      2.33575620	      8.66005039	     89.60350919	     -9.20305782	     28.39841074	     33.53621806	     28.14612350	      0.00000000	      0.00000000	     89.54110366	      0.81123061	     26.22615023	     24.57308750	     26.82555569	      0.00000000	      0.00000000
      0.03500000	    -18.45977195	     -3.87772676	     -3.76027645	      0.09091683	      1.13416230	     -0.24051597	      0.00000000	      0.50000000	      0.00000000	      0.25000000	     93.54197769	     -6.56861790	     -4.64072109	     98.01160162	      1.71062515	     22.88551533	      3.85622359	      0.00000000	      0.00000000	     51.35754561	    -17.20504755	    -10.92289682	     58.33194651	      1.01808453	     11.76329631	     11.26647050	      0.00000000	      0.00000000	    -47.36721027	      2.45838129	      8.56687943	     89.62346672	     -9.70846470	     30.91995077	     33.13396061	     27.62903993	      0.00000000	      0.00000000	     89.57050408	      0.61247307	     28.56559126	     23.75246034	     25.76865430	      0.00000000	      0.00000000
      0.04000000	    -18.46211596	     -3.86560876	     -3.76143928	      0.09091518	      1.13418785	     -0.24051213	      0.00000000	      0.50000000	      0.00000000	      0.25000000	     93.54908829	     -6.55959794	     -4.62688179	     98.01819728	      1.71074027	     22.89224494	      3.85380700	      0.00000000	      0.00000000	     51.34586964	    -17.18035297	    -10.92347224	     58.31143258	      1.01772649	     11.77890505	     11.21323193	      0.00000000	      0.00000000	    -47.37711080	      2.44266110	      8.56913584	     89.61820941	     -9.47469527	     29.99253426	     33.00693023	     28.16850314	      0.00000000	      0.00000000	     89.57295261	      0.79002442	     27.78802952	     23.67319635	     26.33973993	      0.00000000	      0.00000000
      0.04500000	    -18.37775834	     -3.86739537	     -3.82538060	      0.09099581	      1.13430088	     -0.24036963	      0.00000000	      0.50000000	      0.00000000	      0.25000000	     93.46050060	     -6.50216694	     -4.62531586	     98.04281889	      1.71117000	     23.02629729	      4.09560420	      0.00000000	      0.00000000	     51.21387064	    -17.28290886	    -11.01881777	     58.30504823	      1.01761506	     11.89347421	     11.62617287	      0.00000000	      0.00000000	    -47.53760463	      2.38442468	      8.69182632	     89.60939259	     -9.46984513	     29.06940195	     33.31313970	     28.92231465	      0.00000000	      0.00000000	     89.55030814	      0.83781622	     26.78262621	     24.21300206	     27.14175783	      0.00000000	      0.00000000
      0.05000000	    -18.38388407	     -3.85970901	     -3.77287448	      0.09098658	      1.13434931	     -0.24051636	      0.00000000	      0.50000000	      0.00000000	      0.25000000	     93.45899775	     -6.55652043	     -4.61223211	     98.03127269	      1.71096848	     22.95589465	      3.94158857	      0.00000000	      0.00000000	     51.22452644	    -17.20720703	    -10.98564697	     58.26844847	      1.01697628	     11.81529372	     11.40699096	      0.00000000	      0.00000000	    -47.49296594	      2.43306922	      8.64743204	     89.61670466	     -9.27845696	     28.79624608	     32.90905083	     29.32624025	      0.00000000	      0.00000000	     89.56295488	      1.07257948	     26.28786956	     23.68006267	     27.50420673	      0.00000000	      0.00000000
